# 3ds Max Wavefront OBJ Exporter v0.97b - (c)2007 guruware
# File Created: 27.08.2016 15:31:41

mtllib pickup_coin_grey.mtl

#
# object Cylinder001
#

v  -5.107929 0.821911 0.010705
v  -5.025138 0.912262 0.010705
v  -5.025137 0.912262 0.057648
v  -5.107929 0.821911 0.057648
v  -4.968552 1.020962 0.010705
v  -4.968552 1.020961 0.057648
v  -4.942029 1.140603 0.010705
v  -4.942028 1.140603 0.057648
v  -4.947374 1.263032 0.010705
v  -4.947374 1.263032 0.057648
v  -4.984224 1.379907 0.010705
v  -4.984224 1.379907 0.057648
v  -5.050068 1.483261 0.010705
v  -5.050068 1.483261 0.057648
v  -5.140419 1.566052 0.010705
v  -5.140419 1.566052 0.057648
v  -5.249118 1.622638 0.010705
v  -5.249118 1.622637 0.057648
v  -5.368760 1.649161 0.010705
v  -5.368760 1.649161 0.057648
v  -5.491189 1.643816 0.010705
v  -5.491189 1.643816 0.057648
v  -5.608063 1.606966 0.010705
v  -5.608063 1.606966 0.057648
v  -5.711418 1.541122 0.010705
v  -5.711418 1.541122 0.057648
v  -5.794209 1.450771 0.010705
v  -5.794209 1.450771 0.057648
v  -5.850794 1.342071 0.010705
v  -5.850794 1.342071 0.057648
v  -5.877318 1.222430 0.010705
v  -5.877318 1.222430 0.057648
v  -5.871973 1.100000 0.010705
v  -5.871973 1.100001 0.057648
v  -5.835123 0.983126 0.010705
v  -5.835123 0.983126 0.057648
v  -5.769279 0.879772 0.010705
v  -5.769279 0.879772 0.057648
v  -5.678928 0.796981 0.010705
v  -5.678928 0.796981 0.057648
v  -5.570228 0.740395 0.010705
v  -5.570229 0.740395 0.057648
v  -5.450587 0.713871 0.010705
v  -5.450587 0.713871 0.057648
v  -5.328157 0.719217 0.010705
v  -5.328157 0.719217 0.057648
v  -5.211283 0.756067 0.010705
v  -5.211283 0.756067 0.057648
# 48 vertices

vn 0.642788 -0.766044 -0.000002
vn 0.819152 -0.573576 -0.000001
vn 0.939693 -0.342020 -0.000001
vn 0.996195 -0.087155 -0.000001
vn 0.996195 -0.087156 -0.000001
vn 0.984808 0.173648 -0.000000
vn 0.906308 0.422619 0.000000
vn 0.906308 0.422618 0.000000
vn 0.766044 0.642788 0.000000
vn 0.766044 0.642787 0.000000
vn 0.573576 0.819152 0.000001
vn 0.573577 0.819152 0.000001
vn 0.342020 0.939693 0.000001
vn 0.342020 0.939692 0.000001
vn 0.087156 0.996195 0.000001
vn -0.173648 0.984808 0.000002
vn -0.422618 0.906308 0.000001
vn -0.422618 0.906308 0.000002
vn -0.642788 0.766044 0.000002
vn -0.642787 0.766045 0.000002
vn -0.819152 0.573576 0.000001
vn -0.819152 0.573577 0.000002
vn -0.939693 0.342020 0.000002
vn -0.939692 0.342021 0.000002
vn -0.996195 0.087155 0.000001
vn -0.996195 0.087156 0.000001
vn -0.984808 -0.173649 0.000000
vn -0.984808 -0.173648 0.000000
vn -0.906308 -0.422618 -0.000000
vn -0.906308 -0.422618 0.000000
vn -0.766044 -0.642788 -0.000000
vn -0.766045 -0.642787 0.000000
vn -0.573576 -0.819152 -0.000001
vn -0.573577 -0.819152 -0.000001
vn -0.342020 -0.939693 -0.000002
vn -0.342021 -0.939692 -0.000002
vn -0.087156 -0.996195 -0.000002
vn -0.087157 -0.996195 -0.000001
vn 0.173648 -0.984808 -0.000002
vn 0.173648 -0.984808 -0.000001
vn 0.422618 -0.906308 -0.000002
vn 0.422618 -0.906308 -0.000001
vn -0.000000 -0.000000 1.000000
vn 0.000000 -0.000000 -1.000000
vn 0.000000 0.000000 -1.000000
vn -0.000000 0.000000 -1.000000
vn -0.000000 0.000001 -1.000000
# 47 vertex normals

vt 0.736857 0.983901 0.000000
vt 0.649646 0.983901 0.000000
vt 0.649646 0.950205 0.000000
vt 0.736857 0.950205 0.000000
vt 0.568378 0.983901 0.000000
vt 0.568378 0.950205 0.000000
vt 0.498591 0.983901 0.000000
vt 0.498591 0.950205 0.000000
vt 0.428805 0.983901 0.000000
vt 0.428805 0.950205 0.000000
vt 0.347537 0.983901 0.000000
vt 0.347537 0.950205 0.000000
vt 0.260325 0.983901 0.000000
vt 0.260325 0.950205 0.000000
vt 0.173114 0.983901 0.000000
vt 0.173114 0.950205 0.000000
vt 0.091845 0.983901 0.000000
vt 0.091845 0.950205 0.000000
vt 0.022059 0.983901 0.000000
vt 0.022059 0.950205 0.000000
vt 0.975124 0.937491 0.000000
vt 0.905337 0.937491 0.000000
vt 0.905337 0.903795 0.000000
vt 0.975124 0.903795 0.000000
vt 0.824069 0.937491 0.000000
vt 0.824069 0.903795 0.000000
vt 0.736858 0.937491 0.000000
vt 0.736858 0.903795 0.000000
vt 0.649646 0.937491 0.000000
vt 0.649646 0.903795 0.000000
vt 0.568378 0.937491 0.000000
vt 0.568378 0.903795 0.000000
vt 0.498591 0.937491 0.000000
vt 0.498591 0.903795 0.000000
vt 0.428805 0.937491 0.000000
vt 0.428805 0.903795 0.000000
vt 0.347537 0.937491 0.000000
vt 0.347537 0.903795 0.000000
vt 0.260325 0.937491 0.000000
vt 0.260325 0.903795 0.000000
vt 0.173114 0.937491 0.000000
vt 0.173114 0.903795 0.000000
vt 0.091845 0.937491 0.000000
vt 0.091845 0.903795 0.000000
vt 0.022059 0.937491 0.000000
vt 0.022059 0.903795 0.000000
vt 0.975123 0.983901 0.000000
vt 0.905337 0.983901 0.000000
vt 0.905337 0.950205 0.000000
vt 0.975123 0.950205 0.000000
vt 0.824069 0.983901 0.000000
vt 0.824069 0.950205 0.000000
vt 0.860856 0.176916 0.000000
vt 0.919253 0.277446 0.000000
vt 0.949641 0.389665 0.000000
vt 0.677592 0.037063 0.000000
vt 0.780304 0.801567 0.000000
vt 0.920157 0.618303 0.000000
vt 0.949950 0.505925 0.000000
vt 0.862294 0.719141 0.000000
vt 0.066868 0.508267 0.000000
vt 0.338917 0.860868 0.000000
vt 0.567555 0.890352 0.000000
vt 0.679774 0.859964 0.000000
vt 0.451295 0.890661 0.000000
vt 0.155653 0.721015 0.000000
vt 0.238079 0.803005 0.000000
vt 0.097256 0.620485 0.000000
vt 0.236205 0.096364 0.000000
vt 0.096352 0.279628 0.000000
vt 0.066560 0.392006 0.000000
vt 0.154215 0.178790 0.000000
vt 0.448953 0.007579 0.000000
vt 0.336735 0.037967 0.000000
vt 0.565213 0.007270 0.000000
vt 0.778430 0.094926 0.000000
# 76 texture coords

g Cylinder001
usemtl 02___Default
s off
f -48/-76/-47 -47/-75/-46 -46/-74/-46 -45/-73/-47 
f -47/-75/-46 -44/-72/-45 -43/-71/-45 -46/-74/-46 
f -44/-72/-45 -42/-70/-44 -41/-69/-43 -43/-71/-45 
f -42/-70/-44 -40/-68/-42 -39/-67/-42 -41/-69/-43 
f -40/-68/-42 -38/-66/-41 -37/-65/-40 -39/-67/-42 
f -38/-66/-41 -36/-64/-39 -35/-63/-38 -37/-65/-40 
f -36/-64/-39 -34/-62/-37 -33/-61/-36 -35/-63/-38 
f -34/-62/-37 -32/-60/-35 -31/-59/-34 -33/-61/-36 
f -32/-60/-35 -30/-58/-33 -29/-57/-33 -31/-59/-34 
f -30/-56/-33 -28/-55/-32 -27/-54/-32 -29/-53/-33 
f -28/-55/-32 -26/-52/-31 -25/-51/-30 -27/-54/-32 
f -26/-52/-31 -24/-50/-29 -23/-49/-28 -25/-51/-30 
f -24/-50/-29 -22/-48/-27 -21/-47/-26 -23/-49/-28 
f -22/-48/-27 -20/-46/-25 -19/-45/-24 -21/-47/-26 
f -20/-46/-25 -18/-44/-23 -17/-43/-22 -19/-45/-24 
f -18/-44/-23 -16/-42/-21 -15/-41/-20 -17/-43/-22 
f -16/-42/-21 -14/-40/-19 -13/-39/-18 -15/-41/-20 
f -14/-40/-19 -12/-38/-17 -11/-37/-16 -13/-39/-18 
f -12/-38/-17 -10/-36/-15 -9/-35/-14 -11/-37/-16 
f -10/-36/-15 -8/-34/-13 -7/-33/-12 -9/-35/-14 
f -8/-34/-13 -6/-32/-11 -5/-31/-10 -7/-33/-12 
f -6/-30/-11 -4/-29/-9 -3/-28/-8 -5/-27/-10 
f -4/-29/-9 -2/-26/-7 -1/-25/-6 -3/-28/-8 
f -2/-26/-7 -48/-76/-47 -45/-73/-47 -1/-25/-6 
f -46/-24/-5 -43/-23/-5 -41/-22/-5 -1/-21/-5 
f -33/-20/-5 -1/-21/-5 -41/-22/-5 -37/-19/-5 
f -41/-22/-5 -39/-18/-5 -37/-19/-5 
f -37/-19/-5 -35/-17/-5 -33/-20/-5 
f -17/-16/-5 -1/-21/-5 -33/-20/-5 -25/-15/-5 
f -29/-14/-5 -25/-15/-5 -33/-20/-5 -31/-13/-5 
f -29/-14/-5 -27/-12/-5 -25/-15/-5 
f -21/-11/-5 -17/-16/-5 -25/-15/-5 -23/-10/-5 
f -21/-11/-5 -19/-9/-5 -17/-16/-5 
f -9/-8/-5 -1/-21/-5 -17/-16/-5 -13/-7/-5 
f -17/-16/-5 -15/-6/-5 -13/-7/-5 
f -13/-7/-5 -11/-5/-5 -9/-8/-5 
f -5/-4/-5 -1/-21/-5 -9/-8/-5 -7/-3/-5 
f -5/-4/-5 -3/-2/-5 -1/-21/-5 
f -45/-1/-5 -46/-24/-5 -1/-21/-5 
f -26/-24/-4 -28/-23/-3 -30/-22/-4 -22/-21/-4 
f -38/-20/-4 -22/-21/-4 -30/-22/-4 -34/-19/-4 
f -30/-22/-4 -32/-18/-4 -34/-19/-4 
f -34/-19/-4 -36/-17/-3 -38/-20/-4 
f -6/-16/-3 -22/-21/-4 -38/-20/-4 -47/-15/-3 
f -42/-14/-3 -47/-15/-3 -38/-20/-4 -40/-13/-3 
f -42/-14/-3 -44/-12/-4 -47/-15/-3 
f -2/-11/-4 -6/-16/-3 -47/-15/-3 -48/-10/-2 
f -2/-11/-4 -4/-9/-1 -6/-16/-3 
f -14/-8/-3 -22/-21/-4 -6/-16/-3 -10/-7/-3 
f -6/-16/-3 -8/-6/-3 -10/-7/-3 
f -10/-7/-3 -12/-5/-3 -14/-8/-3 
f -18/-4/-3 -22/-21/-4 -14/-8/-3 -16/-3/-3 
f -18/-4/-3 -20/-2/-4 -22/-21/-4 
f -24/-1/-4 -26/-24/-4 -22/-21/-4 
# 38 polygons - 16 triangles

