# 3ds Max Wavefront OBJ Exporter v0.97b - (c)2007 guruware
# File Created: 27.08.2016 17:24:58

mtllib rail_1_grey.mtl

#
# object Line001
#

v  -20.090178 1.435804 0.145200
v  -20.090176 -0.110869 0.145200
v  -19.850178 -0.110869 0.145200
v  -19.850176 1.027591 0.145200
v  -20.090178 1.435804 -0.145200
v  -20.090176 -0.110869 -0.145200
v  -19.850176 1.027591 -0.145200
v  -19.850178 -0.110869 -0.145200
v  -19.510799 1.113391 0.145200
v  -19.621328 0.900241 0.145200
v  -19.510799 1.113391 -0.145200
v  -19.621328 0.900241 -0.145200
v  -19.093449 0.912320 0.145200
v  -19.185814 0.690418 0.145200
v  -19.093449 0.912320 -0.145200
v  -19.185814 0.690418 -0.145200
v  -18.636560 0.750757 0.145200
v  -18.700562 0.518825 0.145200
v  -18.636560 0.750757 -0.145200
v  -18.700562 0.518825 -0.145200
v  -18.115696 0.645936 0.145200
v  -18.145370 0.407097 0.145200
v  -18.115696 0.645936 -0.145200
v  -18.145370 0.407097 -0.145200
v  -17.505713 0.616243 0.145200
v  -17.500746 0.375717 0.145200
v  -17.505713 0.616243 -0.145200
v  -17.500746 0.375717 -0.145200
v  -16.782108 0.681500 0.145200
v  -16.746553 0.443732 0.145200
v  -16.782108 0.681500 -0.145200
v  -16.746553 0.443732 -0.145200
v  -15.918097 0.862895 0.145200
v  -15.864943 0.628823 0.145200
v  -15.918097 0.862895 -0.145200
v  -15.864943 0.628823 -0.145200
v  -14.155280 1.293637 0.145200
v  -14.103542 1.059218 0.145200
v  -14.155280 1.293637 -0.145200
v  -14.103542 1.059218 -0.145200
v  -12.811122 1.558831 0.145200
v  -12.772724 1.321780 0.145200
v  -12.811122 1.558831 -0.145200
v  -12.772724 1.321780 -0.145200
v  -11.817058 1.685125 0.145200
v  -11.799513 1.445424 0.145200
v  -11.817058 1.685125 -0.145200
v  -11.799513 1.445424 -0.145200
v  -11.100410 1.699285 0.145200
v  -11.115045 1.458948 0.145200
v  -11.100410 1.699285 -0.145200
v  -11.115045 1.458948 -0.145200
v  -10.590362 1.626678 0.145200
v  -10.648598 1.392548 0.145200
v  -10.590362 1.626678 -0.145200
v  -10.648598 1.392548 -0.145200
v  -10.223022 1.494170 0.145200
v  -10.322519 1.274923 0.145200
v  -10.223022 1.494170 -0.145200
v  -10.322519 1.274923 -0.145200
v  -9.876835 1.302408 0.145200
v  -10.116833 1.160987 0.145200
v  -9.876835 1.302408 -0.145200
v  -10.116833 1.160987 -0.145200
v  -9.876834 -0.053918 0.145200
v  -10.116834 -0.053919 0.145200
v  -9.876834 -0.053918 -0.145200
v  -10.116834 -0.053919 -0.145200
# 68 vertices

vn -0.000000 -0.000000 1.000000
vn 0.000000 -0.000000 1.000000
vn -1.000000 -0.000001 -0.000000
vn 0.000000 0.000000 -1.000000
vn 1.000000 -0.000001 -0.000000
vn 0.460347 0.887739 0.000000
vn 0.486261 0.873814 0.000000
vn -0.460349 -0.887738 -0.000000
vn -0.486264 -0.873812 -0.000000
vn 0.384281 0.923216 0.000000
vn -0.384281 -0.923216 -0.000000
vn 0.266001 0.963973 0.000000
vn -0.266001 -0.963973 -0.000000
vn 0.123301 0.992369 0.000000
vn -0.123301 -0.992369 -0.000000
vn -0.020648 0.999787 0.000000
vn -0.000000 0.000000 -1.000000
vn 0.020648 -0.999787 -0.000000
vn -0.147895 0.989003 0.000000
vn 0.147895 -0.989003 -0.000000
vn -0.221445 0.975173 0.000000
vn 0.221445 -0.975173 -0.000000
vn -0.215518 0.976500 0.000000
vn 0.215518 -0.976500 -0.000000
vn -0.159892 0.987135 0.000001
vn 0.159892 -0.987135 -0.000000
vn -0.072998 0.997332 0.000000
vn 0.072998 -0.997332 -0.000000
vn 0.060786 0.998151 0.000000
vn -0.060786 -0.998151 -0.000000
vn 0.241392 0.970428 0.000000
vn -0.241393 -0.970427 -0.000000
vn 0.413253 0.910616 0.000000
vn -0.413256 -0.910615 -0.000000
vn 0.484551 0.874763 0.000000
vn -0.484555 -0.874761 -0.000000
vn 1.000000 0.000000 0.000000
vn -1.000000 0.000000 0.000000
vn 0.000000 -1.000000 -0.000000
vn 0.000004 -1.000000 -0.000000
# 40 vertex normals

g Line001
usemtl wire_177027088
s 1
f -68//-40 -67//-39 -66//-40 -65//-40 
s 2
f -64//-38 -63//-38 -67//-38 -68//-38 
s 1
f -62//-37 -61//-37 -63//-37 -64//-37 
s 2
f -65//-36 -66//-36 -61//-36 -62//-36 
s 1
f -60//-40 -68//-40 -65//-40 -59//-40 
s 4
f -58//-35 -64//-34 -68//-34 -60//-35 
s 1
f -57//-37 -62//-37 -64//-37 -58//-37 
s 4
f -59//-33 -65//-32 -62//-32 -57//-33 
s 1
f -56//-40 -60//-40 -59//-40 -55//-40 
s 4
f -54//-31 -58//-35 -60//-35 -56//-31 
s 1
f -53//-37 -57//-37 -58//-37 -54//-37 
s 4
f -55//-30 -59//-33 -57//-33 -53//-30 
s 1
f -52//-40 -56//-40 -55//-40 -51//-40 
s 4
f -50//-29 -54//-31 -56//-31 -52//-29 
s 1
f -49//-37 -53//-37 -54//-37 -50//-37 
s 4
f -51//-28 -55//-30 -53//-30 -49//-28 
s 1
f -48//-40 -52//-40 -51//-40 -47//-40 
s 4
f -46//-27 -50//-29 -52//-29 -48//-27 
s 1
f -45//-37 -49//-37 -50//-37 -46//-37 
s 4
f -47//-26 -51//-28 -49//-28 -45//-26 
s 1
f -44//-39 -48//-40 -47//-40 -43//-39 
s 4
f -42//-25 -46//-27 -48//-27 -44//-25 
s 1
f -41//-24 -45//-37 -46//-37 -42//-24 
s 4
f -43//-23 -47//-26 -45//-26 -41//-23 
s 1
f -40//-39 -44//-39 -43//-39 -39//-39 
s 4
f -38//-22 -42//-25 -44//-25 -40//-22 
s 1
f -37//-24 -41//-24 -42//-24 -38//-24 
s 4
f -39//-21 -43//-23 -41//-23 -37//-21 
s 1
f -36//-39 -40//-39 -39//-39 -35//-39 
s 4
f -34//-20 -38//-22 -40//-22 -36//-20 
s 1
f -33//-24 -37//-24 -38//-24 -34//-24 
s 4
f -35//-19 -39//-21 -37//-21 -33//-19 
s 1
f -32//-39 -36//-39 -35//-39 -31//-39 
s 4
f -30//-18 -34//-20 -36//-20 -32//-18 
s 1
f -29//-24 -33//-24 -34//-24 -30//-24 
s 4
f -31//-17 -35//-19 -33//-19 -29//-17 
s 1
f -28//-39 -32//-39 -31//-39 -27//-39 
s 4
f -26//-16 -30//-18 -32//-18 -28//-16 
s 1
f -25//-24 -29//-24 -30//-24 -26//-24 
s 4
f -27//-15 -31//-17 -29//-17 -25//-15 
s 1
f -24//-39 -28//-39 -27//-39 -23//-39 
s 4
f -22//-14 -26//-16 -28//-16 -24//-14 
s 1
f -21//-24 -25//-24 -26//-24 -22//-24 
s 4
f -23//-13 -27//-15 -25//-15 -21//-13 
s 1
f -20//-40 -24//-39 -23//-39 -19//-40 
s 4
f -18//-12 -22//-14 -24//-14 -20//-12 
s 1
f -17//-37 -21//-24 -22//-24 -18//-37 
s 4
f -19//-11 -23//-13 -21//-13 -17//-11 
s 1
f -16//-40 -20//-40 -19//-40 -15//-40 
s 4
f -14//-10 -18//-12 -20//-12 -16//-10 
s 1
f -13//-37 -17//-37 -18//-37 -14//-37 
s 4
f -15//-9 -19//-11 -17//-11 -13//-9 
s 1
f -12//-40 -16//-40 -15//-40 -11//-40 
s 4
f -10//-8 -14//-10 -16//-10 -12//-8 
s 1
f -9//-37 -13//-37 -14//-37 -10//-37 
s 4
f -11//-7 -15//-9 -13//-9 -9//-7 
s 1
f -8//-40 -12//-40 -11//-40 -7//-40 
s 4
f -6//-6 -10//-8 -12//-8 -8//-6 
s 1
f -5//-37 -9//-37 -10//-37 -6//-37 
s 4
f -7//-5 -11//-7 -9//-7 -5//-5 
s 1
f -4//-40 -8//-40 -7//-40 -3//-40 
s 2
f -2//-4 -6//-4 -8//-4 -4//-4 
s 1
f -1//-37 -5//-37 -6//-37 -2//-37 
s 2
f -3//-3 -7//-3 -5//-3 -1//-3 
s 4
f -63//-2 -61//-2 -66//-2 -67//-2 
f -2//-1 -4//-1 -3//-1 
f -1//-1 -2//-1 -3//-1 
# 65 polygons - 2 triangles

